<?xml version="1.0" standalone="no"?>
<!DOCTYPE svg PUBLIC "-//W3C//DTD SVG 20010904//EN"
 "http://www.w3.org/TR/2001/REC-SVG-20010904/DTD/svg10.dtd">
<svg version="1.0" xmlns="http://www.w3.org/2000/svg"
 width="300.000000pt" height="300.000000pt" viewBox="0 0 300.000000 300.000000"
 preserveAspectRatio="xMidYMid meet">
<metadata>
Created by potrace 1.10, written by Peter Selinger 2001-2011
</metadata>
<g transform="translate(0.000000,300.000000) scale(0.050000,-0.050000)"
fill="#000000" stroke="none">
<path d="M2980 5362 c0 -10 23 -23 50 -30 74 -19 62 -37 -60 -87 -109 -44
-208 -62 -155 -28 19 11 12 23 -25 43 -69 37 -86 10 -30 -50 44 -47 45 -52 13
-86 -53 -59 -44 -180 16 -207 l50 -23 -50 -58 c-61 -73 -65 -166 -8 -196 22
-12 35 -31 28 -41 -18 -30 43 -22 69 9 18 22 12 30 -32 43 l-56 15 50 15 c49
15 49 15 -9 17 -44 1 -53 8 -37 24 26 26 238 7 257 -23 6 -11 -27 -20 -75 -22
l-86 -2 70 -14 70 -14 -92 -43 c-51 -24 -113 -47 -139 -51 -57 -8 -72 -43 -37
-86 27 -32 71 -31 323 5 80 11 137 48 75 48 -11 0 -20 12 -20 27 0 15 -17 43
-39 62 -38 35 -38 36 0 77 48 51 50 109 6 157 -31 34 -31 40 0 74 40 44 43
160 5 214 -24 34 -24 46 0 78 37 51 35 101 -3 140 -34 33 -129 43 -129 13z
m58 -179 c-102 -79 -242 -136 -225 -92 6 16 20 29 31 29 10 0 32 14 49 30 16
17 54 30 83 30 42 1 47 5 24 20 -23 15 -17 19 28 20 l57 0 -47 -37z m17 -116
c69 -18 53 -47 -20 -36 -63 10 -64 9 -15 -15 47 -23 42 -25 -70 -37 l-120 -12
125 -4 c69 -1 125 -11 125 -21 0 -25 -93 -83 -108 -67 -7 7 12 24 43 39 52 25
49 26 -47 17 -72 -6 -116 1 -146 22 -60 42 -22 87 75 88 59 2 65 5 33 19 -50
21 51 27 125 7z m-106 -206 c7 -11 -13 -33 -43 -51 l-56 -32 60 12 c33 7 63
21 67 31 9 25 77 24 93 -1 7 -11 -8 -20 -34 -21 -42 -1 -41 -3 14 -30 58 -28
56 -29 -60 -17 -66 7 -139 12 -162 12 -40 1 -40 3 10 57 54 59 92 72 111 40z
m76 -326 c8 -19 -18 -23 -103 -17 -81 5 -101 11 -72 23 62 25 165 22 175 -6z
m-27 -44 c-16 -15 -176 -19 -191 -5 -7 8 34 14 93 14 59 0 103 -4 98 -9z"/>
<path d="M3509 5303 c-192 -66 -275 -160 -257 -293 16 -126 53 -255 66 -234 7
11 32 -25 56 -78 51 -116 44 -130 -13 -23 -21 41 -40 65 -40 53 -2 -51 179
-297 258 -349 198 -134 556 -124 590 15 33 136 99 177 172 109 46 -43 130 -36
148 12 20 52 -41 123 -106 121 -31 -1 -67 4 -78 11 -25 16 -50 -42 -32 -74 7
-13 6 -16 -3 -8 -9 8 -60 -26 -113 -75 -201 -189 -543 -175 -693 29 -42 56
-42 121 0 121 11 0 15 -14 8 -32 -18 -46 6 -74 40 -47 15 13 29 16 31 6 2 -9
5 -26 8 -37 2 -11 5 -30 7 -43 4 -42 121 -83 192 -67 53 12 65 9 56 -12 -11
-31 33 -34 114 -8 31 10 37 17 16 18 -18 1 -39 11 -46 22 -16 26 11 71 28 45
27 -41 138 -45 186 -5 l46 38 -45 -11 c-50 -13 -64 27 -15 46 16 6 25 19 20
28 -6 9 -2 22 10 29 11 7 20 -2 20 -19 0 -17 10 -31 22 -31 12 0 17 15 10 32
-9 23 -4 29 18 21 20 -8 42 13 70 67 48 93 30 112 -57 59 -35 -21 -73 -39 -85
-39 -11 0 -34 -13 -50 -29 -21 -21 -57 -27 -124 -20 -52 6 -148 13 -214 16
-88 5 -155 24 -249 72 l-129 66 44 36 44 35 -66 39 c-87 52 -99 155 -25 224
27 26 44 56 37 67 -7 11 -3 14 8 7 12 -7 69 5 128 26 60 21 95 38 78 39 -16 0
-64 -12 -105 -26 -41 -15 -70 -19 -64 -10 6 9 47 27 91 39 44 11 95 27 113 34
21 8 27 4 17 -12 -9 -15 1 -22 32 -21 25 0 35 6 21 11 -14 6 -20 19 -14 29 18
28 -70 19 -182 -19z m91 -683 c0 -22 -12 -40 -27 -40 -37 0 -52 19 -39 52 16
42 66 33 66 -12z m326 -40 c-6 -22 -19 -40 -28 -40 -10 0 -18 -13 -18 -29 0
-41 -39 -60 -67 -32 -17 18 -15 30 12 50 19 14 35 40 35 58 0 19 16 33 38 33
28 0 36 -10 28 -40z m-246 -40 c0 -41 -48 -55 -70 -20 -17 27 6 60 41 60 16 0
29 -18 29 -40z"/>
<path d="M4068 5302 c64 -22 127 -50 140 -63 17 -18 12 -19 -22 -1 -24 12 -54
22 -67 22 -13 0 25 -25 83 -56 117 -61 174 -135 150 -196 -14 -37 -16 -37 -44
2 -25 34 -32 36 -49 10 -16 -25 -25 -22 -58 20 -34 44 -40 46 -52 15 -7 -19
-27 -35 -44 -35 -25 0 -25 5 -4 31 31 38 0 76 -54 65 -20 -4 -47 5 -59 21 -14
19 -32 23 -50 12 -44 -27 -106 -22 -131 11 -21 26 -28 25 -62 -5 -21 -19 -45
-28 -53 -20 -8 8 -24 -1 -35 -20 -13 -25 -33 -32 -68 -23 -30 8 -49 4 -49 -10
0 -13 -27 -20 -64 -17 -49 4 -66 -4 -75 -35 -6 -22 -22 -40 -36 -40 -44 0 -21
-39 36 -63 54 -23 55 -22 48 35 -6 48 0 58 36 58 33 0 38 -5 19 -24 -59 -59
-28 -112 77 -134 132 -29 134 -29 184 18 23 22 60 40 80 40 55 0 36 -66 -20
-70 -25 -2 -51 -10 -59 -17 -8 -8 22 -12 67 -9 56 4 79 14 72 31 -13 35 32 85
77 85 51 0 48 -31 -6 -69 -44 -30 -43 -31 35 -32 69 -1 73 -4 33 -20 -26 -10
-60 -32 -77 -49 -38 -39 -87 -39 -87 0 0 17 -15 30 -32 30 -28 0 -29 -5 -7
-32 22 -26 22 -34 -2 -49 -21 -13 -9 -18 41 -18 102 0 159 19 147 49 -12 31
64 78 94 59 14 -8 12 -23 -5 -44 -22 -27 -19 -29 24 -15 28 8 53 23 56 32 4 8
20 11 35 5 16 -6 29 -1 29 11 0 12 10 22 21 22 12 0 15 -10 8 -21 -8 -13 2
-19 24 -15 102 17 126 312 32 401 -66 64 -206 127 -315 144 -66 10 -60 5 38
-27z m-248 -242 c0 -11 -22 -20 -49 -20 -27 0 -54 -9 -61 -20 -18 -30 -50 -24
-50 9 0 25 30 35 135 48 14 2 25 -6 25 -17z m-180 -59 c0 -25 -71 -63 -87 -47
-18 17 26 66 59 66 16 0 28 -9 28 -19z m109 -33 c42 -17 3 -68 -53 -68 -24 0
-33 -9 -24 -23 9 -14 5 -18 -9 -9 -16 10 -14 28 10 63 36 55 32 53 76 37z
m399 -38 c-8 -31 -4 -50 10 -50 12 0 22 23 22 50 0 28 9 50 20 50 11 0 20 -9
20 -21 0 -12 32 -17 80 -12 78 9 113 -24 60 -57 -11 -7 -20 2 -20 19 0 39 8
40 -108 -19 -113 -57 -143 -61 -158 -22 -19 49 9 112 49 112 30 0 35 -10 25
-50z"/>
<path d="M1991 5286 c-11 -30 -16 -31 -32 -5 -14 21 -23 23 -34 5 -24 -36
-163 -126 -196 -126 -16 0 -29 -10 -29 -22 0 -13 -38 -57 -85 -98 -47 -41
-117 -129 -155 -195 -96 -166 -133 -187 -136 -78 -2 65 1 76 18 48 11 -19 14
-46 6 -58 -9 -15 -5 -18 10 -8 16 9 20 36 11 75 -10 46 -7 57 12 45 16 -10 20
-7 11 7 -8 13 -3 44 11 69 25 45 25 45 39 -15 l13 -60 3 63 c1 36 24 90 52
123 98 117 47 92 -68 -33 -219 -236 -209 -543 17 -543 46 0 58 -11 67 -57 47
-231 1114 -165 1114 68 0 40 -79 36 -126 -6 -39 -34 -39 -34 -17 9 13 24 23
66 23 95 0 31 11 51 29 51 72 0 88 243 21 331 -151 199 -200 254 -246 271 -30
10 -67 25 -84 32 -16 8 -39 15 -50 17 -11 1 -37 10 -57 19 -24 10 -43 6 -55
-12 -12 -20 -17 -21 -18 -3 0 37 -54 30 -69 -9z m139 -26 c-7 -11 -1 -20 14
-20 14 -1 -11 -18 -56 -38 -45 -21 -87 -52 -94 -70 -18 -45 -137 -114 -176
-101 -22 6 -37 -4 -44 -30 -5 -23 -2 -36 8 -30 22 14 24 -38 3 -59 -8 -9 -15
-35 -15 -59 0 -90 -40 -49 -46 47 -7 111 -20 121 -75 55 -21 -25 -25 -34 -9
-20 40 36 60 31 60 -15 0 -24 -14 -41 -35 -42 -33 -3 -33 -3 0 -12 19 -5 35
-21 35 -35 0 -31 -49 -75 -65 -59 -7 6 -28 2 -48 -10 -28 -16 -30 -21 -7 -22
74 -2 92 -36 43 -82 -40 -37 -53 -40 -100 -19 -43 20 -48 19 -28 -1 44 -45 33
-103 -14 -74 -148 92 95 459 413 623 79 41 107 43 55 4 -22 -17 -28 -30 -15
-30 13 -1 37 17 53 40 23 34 58 52 149 77 4 1 1 -7 -6 -18z m130 -80 c17 -32
30 -36 60 -20 55 29 59 26 33 -30 -17 -36 -39 -50 -83 -51 l-60 0 50 -29 c28
-16 69 -29 92 -29 32 -1 53 -26 83 -98 l40 -96 -45 -76 -46 -75 1 119 c2 135
-11 165 -67 165 -38 0 -38 -3 -9 -44 82 -118 14 -290 -108 -272 -46 7 -63 0
-72 -28 -7 -20 -22 -31 -33 -23 -12 7 -32 0 -44 -17 -12 -16 -51 -45 -87 -63
-36 -19 -63 -45 -60 -58 3 -13 -15 -33 -40 -44 -25 -11 -45 -28 -45 -38 0 -10
-13 -7 -30 7 -44 37 -36 114 15 150 232 163 358 233 383 212 21 -18 32 -4 52
68 31 111 11 140 -44 64 -35 -48 -49 -53 -110 -42 -65 12 -69 10 -57 -29 16
-52 -43 -85 -71 -41 -53 84 3 158 117 158 62 0 123 75 95 119 -7 13 1 40 20
61 42 47 23 88 -29 61 -20 -11 -42 -51 -49 -90 -16 -81 -24 -88 -109 -95 -35
-2 -63 -13 -63 -23 0 -10 -14 -29 -32 -42 -27 -20 -28 -36 -8 -109 29 -111 15
-150 -50 -134 -34 9 -50 4 -50 -13 0 -15 -27 -36 -60 -49 -58 -22 -85 -86 -36
-86 17 0 18 -6 2 -22 -35 -35 -155 -2 -124 34 19 24 17 27 -9 16 -23 -8 -33
-2 -33 22 0 29 12 32 70 21 65 -12 70 -9 70 39 0 86 92 163 142 119 38 -36 38
-35 9 34 -38 92 6 191 108 242 39 19 76 52 85 74 13 37 136 114 190 119 14 1
34 -16 46 -38z m241 -459 c-13 -23 -17 -51 -11 -62 7 -10 -2 -25 -19 -31 -17
-7 -31 -24 -31 -38 0 -33 -37 -62 -127 -100 -42 -18 -73 -22 -73 -10 0 11 11
20 24 20 58 0 156 91 156 145 0 30 19 74 42 97 49 49 70 38 39 -21z m-125 -96
c-3 -19 -43 -53 -87 -75 -81 -40 -207 -130 -181 -130 7 0 36 15 63 32 27 18
49 24 49 14 0 -31 -96 -66 -181 -66 -43 0 -79 -9 -79 -20 0 -11 -14 -20 -32
-20 -44 0 40 91 122 131 33 16 114 60 180 97 141 80 155 83 146 37z"/>
<path d="M1840 5279 c0 -11 -11 -19 -25 -18 -53 7 -77 -2 -63 -24 10 -16 4
-20 -16 -12 -17 6 -56 -6 -88 -27 -32 -21 -46 -38 -30 -38 15 0 -10 -40 -55
-90 -108 -116 -107 -140 2 -39 88 82 102 101 92 119 -4 5 49 37 118 69 126 60
151 81 95 81 -16 0 -30 -9 -30 -21z"/>
<path d="M533 5166 c-5 -9 -4 -77 2 -151 l10 -135 306 0 c347 0 332 -8 300
169 l-21 121 -294 6 c-161 3 -297 -2 -303 -10z m256 -37 c38 -28 38 -29 1 -29
-35 0 -36 -3 -7 -31 21 -21 48 -27 84 -18 51 13 75 49 33 49 -11 0 -20 12 -20
26 0 36 78 38 128 3 37 -27 38 -29 4 -29 -31 0 -33 -5 -12 -30 14 -16 46 -30
72 -30 27 0 48 -7 48 -17 0 -9 -27 -12 -60 -7 -65 9 -85 -28 -27 -50 28 -11
26 -15 -12 -30 -30 -10 -56 -8 -74 7 -23 18 -26 15 -17 -15 6 -21 0 -15 -14
12 -30 60 -54 79 -101 80 -39 0 -49 -59 -10 -61 14 -1 3 -10 -24 -21 -65 -26
-101 -9 -101 46 -1 37 -4 40 -20 16 -13 -20 -19 -22 -20 -5 0 14 -20 26 -45
27 -35 1 -30 6 20 20 51 15 65 30 65 69 0 57 47 65 109 18z"/>
<path d="M4800 5150 c-275 -62 -321 -105 -214 -197 167 -144 161 -363 -25
-863 -118 -317 -38 -479 290 -592 398 -137 1031 -2 1029 220 -1 91 -126 129
-136 41 -12 -105 -119 -186 -282 -211 l-72 -12 99 67 c160 107 210 204 164
317 -8 21 19 48 91 90 336 195 176 903 -174 770 -76 -29 -97 -6 -50 54 64 83
-9 270 -94 237 -15 -6 -23 -3 -17 7 43 70 -390 122 -609 72z m453 -36 c35 -2
59 -10 55 -18 -5 -7 10 -19 32 -26 109 -34 142 -258 47 -314 -81 -48 -292 -67
-405 -37 -98 27 -412 301 -344 301 20 0 45 -20 57 -45 19 -42 21 -40 35 30 19
97 130 138 330 123 72 -6 158 -12 193 -14z m-285 -434 c68 -22 213 -21 382 4
30 5 39 -4 35 -34 -5 -39 22 -172 47 -239 12 -31 4 -30 -69 7 -155 80 -506 83
-435 4 53 -59 46 -362 -8 -348 -36 10 -40 0 -42 -87 -1 -53 -5 -115 -10 -137
-4 -22 -13 -74 -20 -115 -16 -98 -100 -106 -188 -18 l-57 57 28 142 c14 78 37
162 50 185 12 24 18 61 12 82 -11 44 34 166 69 188 16 10 15 19 -4 30 -20 13
-21 36 -2 119 13 57 24 139 24 183 l0 80 55 -39 c30 -21 90 -50 133 -64z m736
42 c250 -169 216 -722 -43 -722 -36 0 -23 77 16 89 115 37 179 207 143 381
-34 165 -138 242 -264 195 -75 -29 -77 16 -3 74 64 50 49 52 151 -17z m-17
-104 c163 -74 143 -419 -29 -504 l-68 -33 -20 85 c-11 46 -26 93 -33 104 -24
36 -62 268 -50 300 23 59 123 83 200 48z m-393 -238 c35 -15 75 -49 88 -74 14
-26 46 -52 72 -59 157 -39 -111 -189 -328 -183 -112 3 -119 5 -41 11 l95 7 0
156 c0 144 11 193 39 176 6 -4 40 -19 75 -34z m132 -416 c7 16 11 11 12 -11 1
-25 12 -33 32 -26 17 7 30 5 29 -3 -1 -25 -48 -74 -79 -81 -169 -39 -220 -55
-220 -68 0 -8 -10 -15 -21 -15 -12 0 -16 9 -9 20 13 21 10 22 -66 30 -80 8
-68 25 30 40 53 8 83 20 66 26 -125 45 -78 73 107 64 60 -3 74 3 61 23 -13 22
-10 22 16 1 26 -21 34 -21 42 0z m130 -281 c-8 -42 -174 -121 -286 -136 l-92
-13 7 58 c9 62 80 111 174 118 28 2 67 5 87 7 20 2 31 12 24 23 -7 12 10 10
40 -3 28 -13 49 -38 46 -54z"/>
<path d="M301 5051 c-49 -59 -18 -120 64 -127 71 -6 75 -3 75 51 0 95 -85 141
-139 76z"/>
<path d="M3420 4830 c-20 -24 -15 -33 29 -53 68 -31 113 16 57 58 -43 32 -56
31 -86 -5z"/>
<path d="M280 4724 c0 -67 -9 -127 -20 -134 -18 -11 -29 15 -22 55 1 8 -10 15
-25 15 -15 0 -51 19 -80 41 l-53 42 0 -52 c0 -66 65 -130 135 -133 185 -7 347
61 265 112 -11 7 -20 33 -20 59 0 57 -34 87 -117 103 l-63 13 0 -121z"/>
<path d="M3573 4770 c-34 -25 -34 -27 3 -39 51 -16 204 -6 204 14 0 14 -15 17
-100 23 -16 1 -39 8 -50 15 -11 8 -37 2 -57 -13z"/>
<path d="M740 4726 c-40 -20 -72 -53 -75 -76 -2 -22 1 -29 7 -15 14 31 180
105 236 105 35 -1 37 -4 12 -21 -23 -15 -17 -17 22 -8 34 8 63 1 84 -20 29
-29 31 -28 29 5 -2 21 -12 39 -24 40 -184 25 -225 24 -291 -10z"/>
<path d="M1135 4602 c-29 -110 -335 -154 -455 -65 -55 41 -63 42 -57 11 14
-71 268 -130 434 -99 84 15 67 -21 -29 -61 -142 -60 -377 -10 -400 84 -27 106
-113 -9 -104 -138 9 -124 123 -184 346 -183 150 0 182 8 337 85 9 5 -6 -27
-34 -71 -61 -97 -116 -225 -97 -225 8 0 11 -40 7 -89 -7 -88 36 -265 52 -216
5 14 16 20 26 14 89 -55 116 711 29 840 -21 32 -37 79 -33 105 7 56 -8 61 -22
8z m-377 -294 c49 -16 114 -28 146 -28 74 0 57 -31 -27 -48 -87 -17 -185 4
-235 51 -51 47 -55 87 -7 67 19 -8 75 -27 123 -42z"/>
<path d="M192 4376 c-85 -267 -35 -421 111 -348 48 24 59 170 17 222 -9 11
-20 47 -23 80 -7 64 -89 100 -105 46z"/>
<path d="M4202 4364 c-33 -63 24 -124 117 -124 96 0 128 34 94 101 -32 66
-179 82 -211 23z"/>
<path d="M2760 4342 l70 -14 -92 -15 c-51 -8 -110 -29 -130 -45 -30 -24 -31
-29 -6 -21 96 29 220 36 248 13 51 -43 35 -80 -35 -82 l-65 -1 52 -24 c156
-69 171 -177 23 -160 -81 9 -105 3 -164 -41 -49 -37 -75 -46 -90 -31 -21 22
72 123 132 143 23 8 22 15 -2 44 -23 29 -24 43 -4 75 23 37 22 39 -21 25 -69
-24 -157 -13 -198 24 -34 30 -38 30 -49 2 -20 -51 8 -74 90 -74 131 0 143 -46
39 -152 l-88 -91 54 -43 c73 -60 44 -114 -60 -114 -84 -1 -364 -145 -326 -169
12 -7 21 -53 19 -102 -4 -92 41 -169 97 -169 15 0 32 -13 39 -30 6 -16 29 -30
50 -30 124 0 216 -93 153 -156 -52 -52 7 -43 127 20 164 86 177 138 58 233
-140 112 -64 299 123 304 72 3 -16 36 -98 38 -185 4 -76 261 110 261 90 0 141
-45 128 -112 -11 -61 -46 -79 -99 -51 -22 12 -49 13 -65 3 -22 -14 -15 -23 31
-40 98 -37 129 -78 129 -168 -1 -128 -24 -150 -109 -104 -114 61 -107 20 16
-94 99 -92 145 -174 98 -174 -9 0 -24 -20 -35 -45 -11 -25 -40 -48 -65 -51
-58 -9 -57 -32 5 -72 95 -62 119 -122 82 -200 -17 -37 -32 -78 -32 -91 0 -29
-132 -8 -195 32 -74 46 -47 147 39 147 20 0 36 9 36 21 0 42 -64 42 -163 0
-119 -52 -188 -42 -221 31 -24 51 -24 51 -141 14 -77 -24 -31 102 55 152 32
19 15 21 -85 11 -141 -15 -181 18 -114 92 19 21 26 39 14 39 -11 0 -35 -22
-53 -50 -60 -92 -128 -40 -103 78 6 29 16 77 22 106 12 53 11 54 -26 20 -92
-83 -87 -7 6 102 49 58 132 113 268 182 140 70 186 101 159 108 -61 16 -45 64
57 166 97 97 76 87 -61 -28 -94 -80 -234 -93 -234 -23 0 55 31 111 70 126 26
10 26 5 -3 -38 -33 -51 -27 -84 12 -60 11 7 21 27 21 45 0 24 14 28 58 19 41
-8 67 -1 92 27 32 35 32 37 -6 27 -21 -6 -51 2 -66 18 -52 56 -265 -145 -242
-229 2 -8 -9 -10 -24 -4 -57 22 -265 -387 -239 -469 8 -24 6 -26 -7 -8 -36 49
-99 -133 -145 -415 -9 -49 -25 -113 -36 -142 -40 -96 -10 -414 54 -575 23 -58
41 -124 41 -147 0 -23 34 -75 76 -115 42 -39 82 -87 89 -105 22 -57 213 -194
385 -276 205 -98 690 -125 690 -38 0 10 -9 18 -20 18 -27 0 -25 107 3 169 31
67 51 64 67 -8 16 -76 78 -154 151 -191 108 -56 593 -20 689 51 11 8 47 20 80
28 101 23 259 123 266 169 8 53 -19 54 -51 2 -14 -22 -38 -40 -52 -40 -15 0
-51 -19 -80 -41 -29 -23 -53 -37 -53 -30 0 7 -22 -2 -48 -20 -27 -17 -53 -23
-60 -13 -6 10 28 44 77 74 55 35 100 84 122 132 19 43 52 82 72 89 50 16 99
93 118 185 9 41 30 112 47 159 48 129 62 461 24 553 -17 40 -26 85 -20 100 6
15 -4 61 -21 102 -17 41 -31 100 -31 130 0 30 -27 107 -60 172 -33 65 -60 132
-60 150 0 18 -23 66 -50 106 -28 41 -63 105 -78 141 -16 37 -55 87 -89 112
-33 24 -65 65 -72 91 -25 99 -341 315 -515 352 -111 23 -227 10 -206 -24 7
-11 -1 -14 -17 -8 -39 14 -74 -51 -105 -192 -23 -103 -25 -105 -26 -34 -4 166
-93 276 -221 271 l-71 -2 70 -13z m560 -22 c37 -24 -16 -24 -110 0 l-60 15 70
2 c39 1 84 -6 100 -17z m75 -69 c25 -1 42 -10 38 -21 -8 -23 -99 -22 -173 1
-49 15 -49 15 -13 -26 29 -33 32 -50 14 -83 -20 -37 -14 -46 47 -75 39 -19 75
-47 81 -63 12 -30 16 -30 -167 8 -32 7 -75 2 -95 -9 -32 -19 -28 -22 29 -22
210 -2 272 -209 79 -263 l-85 -24 70 -19 c148 -40 172 -172 50 -284 -114 -104
-90 -167 93 -246 86 -38 91 -38 83 -5 -13 48 65 117 152 133 38 7 80 21 91 30
12 10 46 36 77 60 51 38 56 53 51 143 -3 66 3 104 19 109 69 23 -222 168 -324
162 -116 -8 -160 56 -72 103 55 29 37 91 -48 163 -80 70 -56 124 60 133 43 3
88 19 100 35 20 25 26 26 46 1 19 -23 15 -35 -21 -60 -60 -42 1 -95 88 -78 41
8 55 3 55 -21 0 -17 15 -39 33 -49 37 -21 20 -64 -27 -64 -36 0 -226 135 -226
162 0 10 -16 18 -35 17 -25 0 -10 -22 50 -75 87 -76 109 -136 55 -157 -37 -14
-39 -47 -3 -47 69 0 461 -231 442 -261 -5 -9 -1 -22 11 -29 11 -7 20 -22 20
-34 0 -13 -11 -11 -30 4 -37 31 -64 11 -35 -25 70 -83 26 -314 -48 -253 -20
17 -27 17 -27 0 0 -38 -94 -63 -153 -41 -90 35 -126 4 -49 -42 80 -49 71 -91
-17 -84 -50 4 -77 -8 -121 -55 -63 -67 -162 -80 -229 -29 -50 37 -99 37 -131
-1 -21 -26 -16 -30 39 -30 101 0 74 -71 -64 -165 -136 -93 -155 -86 -155 52 0
117 32 176 127 236 l63 39 -90 -6 c-150 -10 -142 153 15 299 99 93 104 136 8
67 -95 -68 -123 -57 -123 49 0 116 42 198 120 232 33 15 60 34 60 42 0 22 -15
19 -82 -16 -96 -50 -139 43 -67 147 28 40 28 44 0 44 -84 0 20 152 131 193 44
15 54 24 28 25 -22 0 -62 -12 -90 -28 -70 -40 -76 -37 -65 25 15 87 59 109
185 92 60 -8 130 -15 155 -16z m-1080 -416 c-35 -53 -87 -64 -212 -45 -116 17
-69 52 84 63 55 4 105 12 110 17 30 30 43 3 18 -35z m1495 21 c101 4 125 -28
42 -55 -96 -32 -192 -11 -192 42 0 32 9 37 45 25 25 -8 72 -13 105 -12z
m-1650 -115 c0 -10 -9 -24 -21 -32 -29 -18 -84 6 -69 31 16 25 90 26 90 1z
m-147 -76 c-34 -65 -88 -117 -105 -100 -17 17 48 131 87 153 49 27 53 15 18
-53z m586 36 c24 -15 23 -30 -7 -104 -50 -120 -72 -177 -72 -188 0 -4 36 -27
80 -49 167 -85 91 -159 -84 -82 -126 56 -138 81 -85 184 39 76 31 145 -19 155
-31 6 -35 -1 -24 -47 18 -73 -22 -190 -65 -190 -163 2 -133 264 37 326 49 18
208 15 239 -5z m1072 -21 c85 -53 89 -70 51 -190 -55 -172 -160 -113 -135 76
8 62 3 75 -22 70 -67 -13 -77 -71 -27 -163 56 -101 49 -119 -64 -176 -46 -23
-99 -55 -118 -71 -40 -35 -76 -19 -76 35 0 23 30 55 80 83 95 55 100 92 31
222 -79 149 103 222 280 114z m348 1 c35 -65 22 -94 -20 -44 -21 26 -39 55
-39 65 0 32 38 19 59 -21z m-2119 -361 c40 -40 50 -74 43 -145 -4 -47 -22 -43
-91 17 -43 38 -52 56 -35 73 32 32 28 56 -7 42 -30 -11 -41 15 -17 40 25 24
67 13 107 -27z m2280 20 c0 -11 -11 -20 -24 -20 -18 0 -18 -6 -1 -23 26 -26
-66 -165 -97 -146 -33 21 -18 116 25 163 45 47 97 61 97 26z m-2330 -310 c1
-66 8 -136 18 -155 27 -57 -39 -43 -88 19 -58 74 -30 275 37 262 26 -5 33 -31
33 -126z m2375 39 c25 -115 4 -199 -55 -226 -56 -25 -74 25 -27 72 18 18 18
43 -3 104 -21 65 -21 85 0 111 39 47 67 26 85 -61z m-196 23 c91 -38 122 -96
69 -129 -32 -20 -41 -18 -51 7 -18 48 -72 38 -57 -11 15 -45 -55 -117 -114
-118 -118 -3 -107 211 13 260 57 23 64 23 140 -9z m-1886 -25 c92 -83 1 -258
-111 -215 -19 7 -32 36 -32 69 0 68 -26 90 -60 49 -35 -43 -80 -37 -80 10 0
105 197 165 283 87z m257 -187 c16 -31 42 -40 109 -40 75 0 95 -9 130 -59 26
-36 83 -74 146 -98 117 -43 195 -125 160 -167 -12 -14 -25 -58 -28 -96 -6 -54
-16 -70 -47 -70 -22 0 -47 -9 -55 -20 -9 -13 -14 -12 -15 2 0 15 -26 18 -79 8
-98 -18 -126 -1 -118 72 6 53 13 57 74 51 42 -4 80 6 105 28 63 58 48 89 -40
86 -58 -3 -95 10 -140 48 -93 79 -332 100 -372 35 -20 -32 68 -62 141 -49 87
17 189 -22 189 -72 0 -140 -138 -299 -259 -299 -55 0 -107 -23 -202 -90 -143
-99 -192 -109 -262 -51 l-47 40 76 0 c61 1 94 18 170 88 114 106 163 133 241
133 87 0 121 18 155 83 42 82 19 102 -68 57 -143 -75 -213 -64 -220 34 -6 83
-6 83 -75 72 -66 -11 -69 -8 -69 49 0 66 40 112 83 95 16 -6 65 27 117 80 96
98 165 115 200 50z m1382 -45 c56 -60 94 -85 133 -85 47 0 56 -9 61 -62 7 -71
-35 -101 -96 -68 -47 25 -68 -4 -52 -70 26 -102 -134 -146 -220 -60 -59 60
-88 64 -88 13 0 -81 72 -137 189 -147 100 -8 120 -19 221 -115 101 -95 119
-104 188 -98 68 7 74 4 55 -26 -11 -19 -28 -30 -36 -25 -9 5 -34 -9 -56 -31
-52 -52 -57 -51 -140 20 -38 32 -85 59 -104 59 -65 0 -93 22 -82 63 10 37 4
39 -79 27 -105 -16 -197 45 -247 165 -62 148 -10 214 168 215 156 1 228 52
108 77 -30 6 -80 17 -110 24 -75 19 -136 0 -222 -68 -40 -32 -104 -64 -143
-72 -123 -23 -57 -120 73 -107 69 6 77 2 77 -38 0 -60 -56 -86 -187 -86 -246
0 -249 230 -6 339 70 31 140 79 159 108 29 44 50 53 121 53 61 0 97 12 123 40
55 61 107 49 192 -45z m527 -23 c4 -64 -1 -92 -19 -92 -13 0 -30 -32 -36 -72
-27 -161 -127 -185 -105 -25 17 130 41 177 92 177 30 0 39 14 39 63 0 94 22
55 29 -51z m-2534 -23 c48 -33 76 -142 57 -219 -26 -102 -112 -35 -112 88 0
33 -9 65 -20 72 -11 7 -20 50 -19 96 0 78 2 81 26 39 13 -25 44 -59 68 -76z
m225 2 c0 -16 -9 -34 -20 -41 -11 -7 -20 -43 -20 -80 0 -85 -28 -104 -69 -46
-40 58 -39 114 2 159 40 44 107 49 107 8z m2096 5 c33 -33 30 -86 -7 -158 -38
-73 -62 -61 -74 37 -5 41 -15 91 -24 110 -18 42 65 51 105 11z m215 -291 c-15
-59 -65 -125 -96 -125 -10 0 5 28 33 62 29 33 52 74 52 90 0 15 5 28 12 28 7
0 6 -25 -1 -55z m-2563 -63 c39 -33 42 -62 5 -62 -30 0 -74 83 -72 136 1 27 5
26 18 -7 9 -22 31 -52 49 -67z m333 57 c58 -31 49 -54 -66 -161 -199 -185
-332 -101 -170 107 62 80 151 100 236 54z m2066 -64 c38 -47 76 -112 84 -145
13 -58 12 -58 -18 -20 -19 25 -32 30 -32 14 -1 -15 -10 -21 -21 -14 -12 7 -20
6 -18 -4 17 -99 -56 -84 -168 34 -139 147 -129 215 30 218 63 2 83 -10 143
-83z m-1457 -163 c43 -16 110 -23 147 -17 78 13 102 -13 103 -109 1 -190 -322
-193 -353 -3 l-14 86 -35 -84 c-38 -89 -60 -98 -151 -64 -59 22 -86 52 -87 94
0 17 13 19 47 6 55 -21 164 25 195 82 23 44 43 45 148 9z m778 -33 c45 -45 77
-59 135 -59 93 0 96 -17 17 -87 -101 -90 -177 -65 -194 64 -6 46 -17 83 -24
83 -25 0 -59 -76 -50 -113 16 -68 -24 -97 -133 -97 -126 0 -205 72 -195 177
l6 63 130 -6 c72 -4 153 2 180 13 68 28 63 29 128 -38z m-1144 -189 c32 -28
79 -54 103 -58 129 -25 410 -48 458 -39 66 14 70 -9 17 -123 -83 -181 -320
-244 -322 -85 0 19 12 35 27 35 40 0 100 73 74 89 -11 7 -21 4 -21 -8 0 -11
-7 -20 -15 -18 -8 2 -31 -4 -50 -12 -59 -26 -211 8 -273 60 -62 52 -93 61
-111 30 -7 -10 20 -34 59 -52 90 -43 97 -109 12 -109 -73 0 -122 18 -122 44 0
11 14 15 30 9 41 -16 38 -1 -10 47 -22 22 -40 63 -40 90 0 28 -9 50 -20 50
-11 0 -20 -8 -20 -19 0 -21 -56 -81 -76 -81 -117 3 53 199 173 199 43 1 89
-17 127 -49z m1604 -26 c77 -71 80 -79 51 -110 -55 -57 -99 -43 -99 32 0 49
-9 66 -37 68 -20 2 -36 -10 -36 -25 0 -16 8 -29 19 -29 28 0 -4 -104 -42 -133
-28 -21 -29 -26 -4 -27 56 -2 -44 -60 -104 -60 -72 0 -75 55 -6 120 28 26 50
56 50 67 0 11 -20 2 -45 -21 -101 -92 -267 -118 -338 -53 -34 31 -37 31 -37 1
0 -18 23 -48 50 -66 58 -38 61 -54 19 -97 -40 -39 -135 -25 -189 29 -22 22
-48 40 -58 40 -26 0 -82 129 -82 190 0 44 7 51 35 40 134 -56 493 -20 586 58
90 76 166 69 267 -24z m-1426 -244 c10 0 18 -27 18 -60 0 -53 -7 -60 -59 -60
-61 0 -96 28 -61 50 11 7 20 31 20 53 0 29 9 38 32 29 17 -7 40 -12 50 -12z
m1045 -10 c-6 -17 0 -44 13 -60 28 -34 -11 -59 -74 -47 -58 12 -60 112 -2 123
25 5 52 10 60 11 8 2 10 -11 3 -27z"/>
<path d="M3651 2782 c-6 -10 14 -22 44 -27 30 -5 73 -17 95 -26 39 -16 39 -15
2 28 -38 43 -120 58 -141 25z"/>
<path d="M4025 2375 c13 -38 75 -43 75 -6 0 18 -17 31 -42 31 -24 0 -38 -10
-33 -25z"/>
<path d="M1515 4249 c-30 -17 -55 -37 -55 -46 0 -9 -27 -46 -60 -83 -67 -75
-90 -330 -35 -376 35 -29 135 -52 135 -31 0 9 41 14 90 10 66 -5 90 -15 90
-39 0 -25 -5 -27 -24 -8 -77 77 -176 11 -176 -118 0 -88 3 -94 60 -102 80 -12
95 1 141 123 22 58 67 138 100 179 87 109 21 446 -96 491 -27 11 -27 6 3 -27
50 -55 31 -219 -28 -246 -53 -24 -96 -20 -60 6 25 18 24 20 -7 10 -20 -7 -44
-12 -54 -12 -10 0 -24 -36 -31 -80 -7 -44 -21 -80 -32 -80 -10 0 -13 8 -7 19
6 10 -9 21 -33 25 -52 7 -74 73 -33 98 15 9 43 12 62 6 19 -6 35 -3 35 7 0 29
-46 65 -85 65 -21 0 -32 9 -25 21 17 27 74 16 105 -21 21 -25 22 -22 8 20 -20
61 2 152 35 145 14 -4 19 3 12 15 -7 11 1 20 18 20 16 0 35 9 42 20 18 29 -31
23 -95 -11z m255 -236 c15 -15 20 -36 11 -45 -9 -10 -35 -67 -58 -128 -22 -60
-41 -101 -42 -89 -1 12 -31 17 -74 12 -69 -8 -72 -6 -62 45 5 29 2 58 -8 64
-39 24 11 48 102 48 91 0 165 55 102 76 -22 8 -30 44 -10 44 7 0 24 -12 39
-27z m-123 -348 c34 -55 -14 -125 -84 -123 l-73 1 60 28 c38 17 47 28 25 28
-58 2 -45 81 14 81 27 0 53 -7 58 -15z m-27 -165 c0 -11 -28 -20 -61 -20 -36
0 -56 8 -49 20 7 11 34 20 61 20 27 0 49 -9 49 -20z"/>
<path d="M1945 4157 c-35 -35 7 -97 65 -97 67 0 79 31 31 79 -47 47 -64 50
-96 18z"/>
<path d="M3902 4133 c-34 -42 -6 -89 65 -111 231 -72 286 -69 334 20 39 72
-17 113 -69 50 -40 -48 -47 -49 -137 -28 -94 23 -127 54 -60 58 23 1 18 7 -15
18 -75 24 -93 23 -118 -7z"/>
<path d="M520 3870 c0 -147 7 -210 23 -210 13 0 18 6 10 13 -7 8 0 34 17 59
18 29 22 51 10 58 -11 7 -20 21 -20 32 0 11 9 15 19 9 19 -12 13 53 -8 88 -6
10 -3 24 7 30 20 12 15 74 -8 111 -35 57 -50 1 -50 -190z"/>
<path d="M4384 4056 c-36 -36 -29 -80 11 -72 19 3 38 27 41 51 7 49 -15 58
-52 21z"/>
<path d="M125 3995 c-44 -56 -47 -133 -5 -155 37 -20 39 -16 32 44 -4 36 1 76
11 89 12 15 12 28 0 35 -10 6 -27 0 -38 -13z"/>
<path d="M929 3973 c-8 -30 -30 -54 -56 -59 -42 -8 -42 -9 2 -11 54 -4 56 -18
11 -67 -32 -35 -32 -37 0 -25 19 7 34 4 34 -7 0 -12 -20 -25 -45 -30 -40 -7
-38 -9 9 -11 29 -2 79 7 110 20 l56 23 -50 15 c-37 11 -40 16 -13 17 30 2 33
8 14 30 -17 22 -17 32 1 43 16 10 19 7 8 -11 -11 -18 -8 -21 9 -11 29 18 7 43
-49 57 -36 8 -36 10 5 12 25 1 45 13 45 25 0 13 -6 18 -13 11 -7 -8 -25 -4
-39 8 -20 16 -29 10 -39 -29z"/>
<path d="M348 3921 c11 -92 -5 -120 -72 -121 -18 0 -37 16 -42 35 -8 30 -23
-256 -16 -300 5 -33 -58 -13 -78 25 -28 52 -59 52 -45 -1 19 -76 89 -103 225
-87 138 15 174 52 103 106 -40 30 -43 48 -38 206 3 123 -3 182 -21 200 -22 21
-25 10 -16 -63z m5 -390 c-13 -33 -73 -43 -73 -12 0 21 65 63 77 50 5 -4 3
-21 -4 -38z"/>
<path d="M4183 3862 c-14 -9 -23 -38 -20 -64 9 -61 168 -84 190 -28 27 70 -98
138 -170 92z"/>
<path d="M935 3746 c-20 -5 -30 -19 -22 -30 8 -14 -9 -18 -49 -12 -34 5 -57 1
-52 -8 6 -9 32 -16 59 -16 29 0 47 -10 44 -25 -3 -15 17 -26 50 -27 67 -2 70
7 10 31 -44 18 -44 18 -2 20 25 0 47 17 53 41 10 41 -11 47 -91 26z"/>
<path d="M1240 3611 c0 -170 -484 -226 -663 -76 l-63 54 11 -89 c33 -244 510
-325 713 -122 23 23 47 42 52 42 6 0 22 0 38 0 54 0 51 123 -4 174 -57 53 -84
58 -84 17z"/>
<path d="M4267 3610 c-16 -41 28 -90 81 -90 63 0 95 38 70 83 -24 46 -134 51
-151 7z"/>
<path d="M5927 3583 c31 -13 14 -35 -110 -146 l-147 -131 -70 29 c-119 50
-406 26 -533 -43 -157 -86 -180 -142 -150 -379 62 -510 288 -709 703 -623 83
18 168 34 190 37 95 14 175 260 106 329 -42 42 -90 27 -103 -31 -33 -158 -194
-283 -377 -294 -95 -6 -98 -5 -26 8 l80 15 -110 6 -110 6 123 12 c68 7 131 19
140 29 9 9 -8 10 -38 2 -35 -8 -55 -5 -55 9 0 12 13 22 28 22 16 0 43 5 60 12
22 8 32 1 32 -22 0 -18 11 -29 25 -25 14 5 23 23 19 41 -3 17 4 37 15 44 12 7
21 -3 21 -21 0 -62 62 12 131 156 135 281 133 531 -5 631 -31 23 -51 45 -46
49 6 5 64 52 130 105 158 126 184 193 73 189 -27 -2 -26 -4 4 -16z m-312 -278
c5 -14 17 -20 27 -14 31 19 20 -5 -16 -34 -29 -23 -31 -23 -17 1 13 21 10 24
-11 11 -15 -9 -101 -14 -191 -11 -174 6 -366 -51 -336 -99 7 -13 0 -19 -18
-15 -17 3 -30 -2 -30 -12 0 -10 -8 -23 -18 -30 -10 -6 -29 -30 -41 -52 -20
-36 -23 -33 -23 28 -1 81 110 200 221 237 93 31 442 23 453 -10z m195 -157
c30 -65 35 -138 8 -124 -6 3 -27 -6 -45 -21 -28 -24 -33 -23 -33 5 0 17 -7 33
-15 34 -33 3 -80 18 -192 60 -98 38 -119 40 -134 17 -21 -34 26 -112 61 -103
14 3 37 -5 53 -19 16 -13 28 -15 26 -5 -8 40 2 61 30 61 16 0 25 -7 20 -15 -5
-8 -1 -21 11 -28 11 -7 20 -1 21 14 0 14 13 -1 28 -34 15 -33 28 -50 29 -37 1
12 31 21 67 19 58 -3 65 -9 61 -60 -7 -94 -126 -187 -207 -162 -27 9 -39 3
-39 -18 0 -24 -14 -28 -62 -19 -41 9 -68 4 -78 -14 -13 -21 -50 -15 -183 28
-138 44 -302 133 -247 133 8 0 4 13 -10 30 -13 16 31 1 98 -34 107 -55 146
-64 298 -68 l174 -5 -172 15 c-382 34 -503 216 -238 356 80 43 74 44 -40 12
-16 -5 -3 7 30 26 120 70 474 64 404 -7 -35 -35 204 -141 251 -112 21 13 -39
83 -95 110 -28 14 -26 8 10 -21 61 -50 49 -52 -53 -9 -50 21 -67 36 -47 43 17
6 42 27 56 47 35 49 106 5 154 -95z m-569 -469 c21 -11 70 -21 109 -23 58 -2
70 -10 70 -46 0 -47 -13 -48 -148 -17 -39 9 -54 6 -45 -9 8 -12 54 -28 103
-35 72 -11 90 -21 90 -54 0 -34 -9 -38 -62 -27 -35 6 -87 12 -115 12 -54 0
-114 73 -146 175 -15 51 68 65 144 24z m319 -49 c0 -42 -9 -50 -58 -50 -95 0
-59 82 43 98 8 1 15 -20 15 -48z m93 -81 c-7 -16 -21 -29 -32 -29 -30 0 -26
75 4 85 30 11 43 -15 28 -56z m-93 -29 c0 -22 -8 -40 -18 -40 -10 0 -33 -5
-50 -12 -24 -9 -32 1 -32 40 0 42 9 52 50 52 37 0 50 -11 50 -40z m-140 -98
c0 -16 -158 -7 -178 11 -5 4 33 7 85 7 51 0 93 -8 93 -18z"/>
<path d="M5770 2940 c-7 -11 -5 -20 4 -21 9 0 -20 -22 -64 -50 -44 -27 -71
-49 -60 -49 41 0 143 77 143 108 0 37 -6 40 -23 12z"/>
<path d="M4444 3456 c-57 -57 16 -130 108 -107 84 21 49 131 -42 131 -23 0
-53 -11 -66 -24z"/>
<path d="M4653 3390 c-19 -50 101 -170 170 -170 93 0 96 54 5 132 -83 71 -156
87 -175 38z"/>
<path d="M140 3300 c-98 -98 -2 -280 148 -280 85 0 152 47 117 83 -14 14 -25
59 -25 100 0 125 -151 186 -240 97z m116 -53 c6 -42 -43 -78 -78 -56 -21 13
-24 76 -4 96 26 27 76 3 82 -40z"/>
<path d="M1486 3283 c-23 -16 -66 -220 -52 -255 15 -41 63 -48 95 -16 69 69
30 319 -43 271z"/>
<path d="M552 3188 c-18 -48 56 -200 105 -213 94 -25 114 29 53 142 -59 107
-132 140 -158 71z"/>
<path d="M4532 3115 c-54 -90 -51 -105 29 -125 108 -26 200 106 122 177 -58
53 -97 39 -151 -52z"/>
<path d="M1245 3146 c-27 -5 -40 -18 -32 -31 9 -14 1 -17 -21 -9 -28 11 -33 4
-28 -41 5 -44 18 -56 62 -61 73 -9 118 29 110 93 -6 54 -21 62 -91 49z"/>
<path d="M970 3121 c-7 -12 -21 -16 -32 -10 -30 19 -45 -49 -18 -81 33 -40
118 -38 134 3 22 57 -54 136 -84 88z"/>
<path d="M980 2960 c0 -14 -13 -19 -29 -13 -51 19 -83 -44 -39 -77 82 -62 184
-12 135 67 -25 39 -67 54 -67 23z"/>
<path d="M1339 2938 c0 -42 -3 -44 -21 -13 -25 44 -107 49 -91 5 7 -16 3 -30
-8 -30 -10 0 -19 10 -19 21 0 12 -9 16 -20 9 -49 -30 21 -93 96 -86 64 5 75 0
80 -39 8 -54 -9 -57 -62 -10 -29 26 -42 28 -49 10 -4 -14 -16 -21 -25 -15 -10
6 -23 1 -30 -10 -7 -12 -6 -20 4 -18 9 1 32 2 51 0 55 -3 41 -42 -15 -42 -75
0 -60 -34 21 -49 88 -16 81 -61 -8 -61 -84 0 -69 -38 19 -46 37 -3 79 -21 93
-39 38 -49 30 -76 -12 -38 -39 36 -114 44 -132 15 -6 -10 16 -25 49 -32 33 -7
60 -20 60 -29 0 -27 -86 -41 -114 -18 -16 14 -26 14 -26 2 0 -29 42 -57 106
-73 45 -11 54 -22 44 -53 -8 -25 -3 -40 14 -43 14 -2 -41 -9 -124 -16 l-150
-13 166 -3 c207 -5 199 -27 156 403 -32 316 -51 430 -53 311z"/>
<path d="M4711 2941 c-21 -23 -45 -41 -54 -41 -33 0 -100 -84 -89 -112 22 -58
109 -32 163 51 63 94 47 176 -20 102z"/>
<path d="M255 2884 l-95 -49 1 -223 1 -222 73 -47 c65 -41 82 -44 148 -25 56
17 87 17 127 -2 46 -21 66 -18 142 23 l88 47 0 152 c-1 258 -11 290 -113 339
-57 28 -100 38 -119 27 -23 -13 -10 -25 54 -50 47 -19 80 -39 73 -45 -6 -7 1
-36 16 -65 30 -58 -1 -91 -144 -153 -51 -22 -61 -36 -53 -77 11 -56 3 -64 -89
-83 -49 -11 -65 -7 -65 14 0 16 -22 40 -50 55 -27 15 -46 30 -42 35 5 5 27 -2
50 -14 64 -34 61 103 -2 148 -25 17 -35 31 -23 31 27 0 26 104 0 123 -10 7 1
23 24 36 48 25 50 21 43 -135 l-3 -87 64 34 c61 31 89 31 194 -2 87 -27 63
117 -25 148 -38 14 -70 37 -70 50 0 59 -107 67 -205 17z m331 -428 c-25 -49
-60 12 -39 67 l23 61 11 -57 c7 -31 9 -63 5 -71z"/>
<path d="M890 2662 c6 -104 11 -230 12 -280 0 -51 6 -80 12 -66 7 20 18 16 39
-15 35 -49 123 -54 141 -8 20 52 -23 97 -91 97 -50 0 -63 8 -63 41 0 35 10 40
70 33 55 -7 70 -1 70 25 0 25 -8 29 -34 14 -23 -13 -48 -13 -71 0 -53 28 -23
57 58 57 57 0 69 6 59 32 -7 17 -12 35 -12 40 0 4 -17 -2 -37 -15 -44 -27
-110 -8 -98 28 5 14 26 26 47 27 79 4 88 9 88 45 0 55 -69 109 -119 93 -61
-19 -50 -44 20 -40 74 4 68 -37 -7 -46 -44 -5 -56 4 -73 60 -16 52 -19 27 -11
-122z"/>
<path d="M4740 2582 c0 -48 -9 -62 -39 -62 -58 0 -82 -175 -29 -214 94 -69
161 36 135 209 -19 122 -67 170 -67 67z"/>
<path d="M4807 2219 c-283 -56 -446 -284 -349 -486 148 -305 347 -421 757
-441 l165 -7 0 86 c0 101 66 169 164 169 45 0 57 8 52 35 -13 68 -189 48 -247
-28 -74 -97 -197 -147 -362 -147 -147 0 -275 31 -256 62 6 10 4 18 -6 18 -10
0 -35 14 -56 31 -32 26 -27 25 29 -2 89 -43 396 -67 372 -29 -12 19 -3 23 37
16 29 -6 53 -5 53 2 0 7 43 28 95 47 276 99 349 371 144 543 -93 78 -111 63
-21 -18 76 -70 115 -152 91 -192 -8 -12 -23 -7 -38 14 -25 34 -151 -29 -151
-76 0 -9 -27 -16 -60 -16 -80 0 -76 32 8 59 75 25 101 64 67 98 -16 16 -44 4
-104 -44 -167 -134 -210 -158 -241 -133 -22 18 -33 15 -53 -17 l-25 -41 -81
44 c-45 24 -84 45 -88 47 -45 25 69 102 115 78 104 -54 337 10 313 86 -14 44
141 35 194 -12 23 -21 35 -23 35 -7 0 13 -13 28 -30 35 -16 6 -30 32 -30 57 0
60 -34 85 -136 102 -95 15 -121 -29 -39 -67 65 -29 -53 -19 -131 13 -90 35
-119 30 -94 -18 12 -22 41 -40 66 -40 36 -1 38 -4 14 -20 -16 -11 -50 -20 -75
-20 -25 0 -45 -9 -45 -20 0 -32 -147 -23 -197 12 -25 18 -70 39 -99 47 -68 19
93 133 215 152 39 6 98 18 131 28 77 22 8 22 -103 0z m-252 -344 c40 -36 96
-87 123 -113 l50 -49 -44 -19 c-58 -26 -56 -42 11 -65 43 -16 62 -12 89 15 39
39 104 26 88 -17 -15 -39 -4 -35 93 33 47 34 121 66 165 72 l80 11 -60 -32
c-33 -18 -87 -55 -120 -82 l-60 -49 65 0 c43 0 65 10 65 29 0 30 244 170 310
177 22 2 52 18 66 34 15 17 12 2 -7 -37 -24 -51 -42 -64 -72 -57 -38 10 -174
-60 -176 -91 -2 -25 37 -17 125 28 63 32 77 35 57 11 -85 -102 -613 -167 -695
-85 -17 17 -41 31 -54 31 -13 1 -46 19 -74 42 -50 40 -50 41 -2 17 47 -23 46
-22 -8 49 -59 77 -82 92 -62 39 11 -27 8 -28 -16 -8 -16 13 -24 38 -17 56 7
18 3 26 -8 19 -12 -7 -16 11 -11 47 11 73 9 73 99 -6z"/>
<path d="M5700 2207 c-38 -13 -86 -25 -107 -26 -50 -1 -30 -49 24 -57 63 -10
183 34 183 66 0 41 -23 45 -100 17z"/>
<path d="M670 2160 c15 -24 15 -23 -230 -27 l-190 -3 -2 -100 c-1 -55 5 -158
14 -230 9 -71 22 -179 29 -240 61 -513 120 -910 141 -943 15 -25 1323 -22
1338 3 12 20 -203 1356 -231 1432 -14 37 -38 43 -212 56 -107 7 -202 23 -209
35 -9 15 -61 18 -151 10 -87 -7 -119 -5 -87 6 38 13 17 18 -86 19 -86 1 -132
-5 -124 -18z m255 -111 c278 -7 506 -14 508 -16 1 -2 44 -268 95 -593 51 -324
99 -612 106 -638 l12 -49 -348 14 c-191 7 -448 13 -571 13 l-223 0 -14 125
c-7 69 -39 341 -71 605 -69 562 -70 578 -29 563 16 -6 257 -17 535 -24z m-230
-1384 c-42 -4 -105 -4 -140 1 -36 4 -2 8 75 7 77 0 106 -3 65 -8z"/>
<path d="M791 1922 c11 -10 54 -11 99 -2 l80 15 -99 3 c-60 1 -91 -5 -80 -16z"/>
<path d="M544 1865 c-31 -30 -37 -39 -14 -20 38 31 45 31 73 4 27 -28 30 -28
30 0 0 17 -9 32 -21 33 -12 1 1 9 28 18 48 15 48 16 5 18 -24 1 -70 -23 -101
-53z"/>
<path d="M940 1905 c-83 -15 -188 -165 -115 -165 11 0 14 -13 8 -30 -6 -16 -5
-28 3 -26 8 1 48 -4 89 -13 76 -16 85 -51 13 -51 -24 0 -35 -9 -27 -21 7 -12
18 -17 24 -11 18 19 88 -87 73 -111 -10 -17 -20 -15 -36 7 -69 93 -250 24
-204 -78 43 -92 168 -82 194 16 l12 48 22 -52 c11 -29 40 -57 62 -63 35 -9 42
-27 42 -103 0 -51 8 -92 18 -92 9 0 13 40 7 90 l-10 90 121 0 c144 0 147 3
121 126 -14 67 -14 103 1 121 28 34 -10 73 -72 73 -38 0 -61 25 -41 45 28 28
-183 219 -235 212 -11 -1 -42 -7 -70 -12z m134 -35 c29 -20 48 -62 57 -121 8
-49 27 -97 44 -107 19 -11 26 -30 18 -52 -10 -25 -5 -31 15 -24 62 24 46 -14
-21 -50 -39 -21 -76 -33 -82 -27 -7 6 -2 11 10 11 97 0 -7 152 -117 170 -212
36 -202 207 13 228 11 1 40 -12 63 -28z m25 -269 c12 -21 20 -50 20 -65 -1
-14 -10 -8 -19 14 -15 34 -17 35 -19 5 0 -19 -13 -35 -29 -35 -39 0 -79 54
-65 90 17 43 88 37 112 -9z m206 -104 c-28 -28 -125 -41 -125 -16 0 12 9 16
20 9 11 -7 20 -3 20 9 0 11 14 21 30 21 17 0 30 16 31 35 0 32 2 32 22 -2 13
-23 14 -44 2 -56z m-360 -24 c-3 -7 -5 -30 -5 -51 0 -21 -18 -42 -42 -48 -51
-14 -102 3 -87 28 6 10 2 18 -11 18 -15 0 -15 11 0 40 20 37 159 49 145 13z
m132 -45 c21 -45 19 -50 -12 -44 -19 3 -38 27 -41 51 -9 61 24 57 53 -7z m176
12 c15 0 26 -7 25 -15 -7 -40 5 -47 35 -22 29 23 32 23 24 -2 -13 -39 -197
-52 -220 -16 -36 55 -19 80 46 68 34 -7 74 -13 90 -13z"/>
<path d="M1005 1852 c40 -30 46 -113 11 -148 -17 -17 -17 -24 -1 -24 24 0 56
75 48 115 -3 14 6 25 20 25 14 0 7 13 -14 29 -22 17 -52 30 -69 30 -24 0 -23
-5 5 -27z"/>
<path d="M635 1745 c5 -14 -5 -25 -23 -25 -18 0 -32 11 -32 23 0 24 -29 5 -31
-20 0 -7 -12 -35 -25 -63 l-25 -50 33 45 c36 49 106 59 144 21 75 -75 -39
-174 -119 -104 -24 21 -36 25 -27 10 12 -22 8 -26 -18 -16 -55 22 -17 -23 65
-74 147 -93 161 -222 28 -279 -41 -17 -52 -27 -25 -20 134 31 175 114 108 218
-30 45 -30 49 1 49 18 0 28 8 22 18 -6 11 4 23 24 28 33 9 33 9 0 12 -19 1
-35 11 -35 21 0 11 14 15 30 8 17 -6 30 -1 30 12 0 13 -10 17 -23 9 -16 -10
-20 3 -12 40 7 40 0 61 -28 78 -54 34 -46 51 28 58 62 7 61 7 -18 17 -61 7
-80 3 -72 -16z"/>
<path d="M929 1298 c-21 -33 16 -58 67 -45 42 11 43 14 9 39 -43 33 -59 34
-76 6z"/>
<path d="M740 1280 c0 -11 27 -20 60 -20 48 0 60 -9 62 -45 2 -43 3 -43 17 5
8 28 11 57 7 65 -12 23 -146 18 -146 -5z"/>
<path d="M1278 1201 c-41 -43 -39 -106 4 -146 36 -35 37 -34 24 30 -12 61 -11
63 21 31 18 -18 33 -45 33 -59 0 -34 26 -1 56 69 14 31 16 52 6 45 -18 -11
-68 36 -53 52 5 4 -7 8 -27 8 -19 0 -48 -13 -64 -30z"/>
<path d="M891 1130 c8 -22 18 -83 24 -135 6 -52 16 -95 24 -95 21 0 -8 185
-36 230 -26 40 -26 40 -12 0z"/>
<path d="M1054 1080 c6 -22 20 -46 32 -54 13 -8 16 0 8 21 -22 56 3 37 58 -46
28 -43 46 -88 39 -100 -7 -11 -4 -21 7 -21 43 0 35 34 -30 135 -68 106 -134
143 -114 65z"/>
<path d="M800 1081 c0 -13 14 -50 31 -83 17 -32 24 -69 17 -82 -9 -14 -5 -17
10 -7 14 9 18 31 9 58 -7 24 -15 60 -17 82 -3 41 -50 71 -50 32z"/>
<path d="M5662 2033 c-45 -55 148 -213 258 -213 38 0 48 83 13 113 -94 81
-241 135 -271 100z"/>
<path d="M8 1900 c4 -82 30 -255 58 -384 28 -129 46 -251 41 -273 -6 -21 1
-60 16 -86 64 -114 76 -238 24 -258 -61 -23 -63 -68 -2 -52 25 7 70 13 100 13
35 0 55 11 55 30 0 17 -18 30 -40 30 -22 0 -40 5 -40 10 0 6 -32 166 -72 355
-39 190 -88 440 -109 555 l-38 210 7 -150z"/>
<path d="M69 1958 c-6 -10 9 -26 35 -36 49 -18 83 -10 67 17 -16 25 -90 39
-102 19z"/>
<path d="M1796 1735 c-7 -70 125 -904 179 -1135 15 -66 122 -113 112 -50 -104
686 -231 1270 -275 1270 -4 0 -11 -38 -16 -85z"/>
<path d="M5733 1732 c-24 -63 72 -202 145 -208 66 -7 67 -6 55 56 -27 136
-165 241 -200 152z"/>
<path d="M4060 1549 c-60 -49 -120 -89 -132 -89 -61 0 -214 -107 -175 -121 48
-18 104 -99 92 -134 -9 -26 -523 -457 -637 -535 -36 -25 -61 -51 -54 -58 24
-24 -16 -12 -95 28 -97 50 -106 72 -10 27 l69 -33 171 145 c295 250 226 216
-105 -52 -75 -61 -135 -41 -83 27 23 31 23 32 -1 11 -36 -32 -108 -34 -88 -2
10 16 3 19 -22 10 -30 -12 -32 -9 -11 16 14 17 35 25 46 18 12 -8 15 -3 7 10
-9 14 -1 23 18 23 19 0 27 -9 18 -23 -9 -15 -5 -18 10 -8 13 8 36 4 51 -8 21
-17 42 -9 92 37 36 33 73 56 82 50 10 -6 17 4 17 23 0 18 27 43 60 55 33 13
60 32 60 43 0 12 54 65 119 119 66 54 115 106 109 115 -10 16 -221 -137 -269
-195 -22 -25 -79 -18 -79 11 0 7 61 62 135 121 74 59 118 87 97 64 -59 -67
-12 -52 78 26 136 117 4 96 -144 -23 -510 -412 -586 -480 -586 -531 0 -69 335
-244 390 -205 84 59 645 540 668 572 25 35 22 45 -35 100 -76 75 -78 96 -13
157 28 26 50 63 50 83 0 21 7 37 15 37 17 1 221 178 205 178 -5 0 -59 -40
-120 -89z m-732 -521 c50 -19 39 -38 -68 -128 -93 -78 -180 -97 -180 -40 0 14
194 180 211 180 3 0 20 -5 37 -12z"/>
<path d="M4206 1475 c-101 -111 -130 -227 -69 -282 95 -87 210 -7 233 163 21
158 -69 224 -164 119z"/>
<path d="M5687 1478 c71 -102 23 -158 -136 -158 -97 0 -107 -9 -63 -58 77 -89
46 -172 -46 -123 -29 15 -42 16 -42 1 0 -30 122 -100 175 -100 25 0 45 -9 45
-20 0 -11 -28 -20 -61 -20 -41 0 -57 -8 -47 -23 48 -78 -11 -250 -74 -216 -36
19 -40 39 -35 159 3 76 -1 145 -10 153 -8 9 -12 -60 -9 -152 6 -157 9 -169 63
-209 68 -51 364 -61 421 -14 38 32 44 146 7 140 -86 -15 -139 27 -125 98 15
84 15 500 -1 526 -6 10 -30 28 -53 40 -40 21 -40 21 -9 -24z"/>
<path d="M2099 1448 c-35 -42 0 -98 61 -98 68 0 101 64 51 101 -50 37 -80 37
-112 -3z"/>
<path d="M4790 1439 c22 -9 103 -16 180 -16 177 0 148 11 -60 23 -89 4 -142 1
-120 -7z"/>
<path d="M4455 1338 c-61 -46 -71 -78 -25 -78 34 0 110 69 110 100 0 30 -24
24 -85 -22z"/>
<path d="M2328 1298 c-2 -61 -40 -105 -72 -85 -17 10 -96 -156 -96 -201 0 -34
85 -112 122 -112 41 0 78 40 78 85 0 20 18 72 40 115 48 94 49 100 10 100 -23
0 -27 13 -18 50 7 29 2 63 -12 80 -37 45 -50 37 -52 -32z"/>
<path d="M2701 1311 c-35 -42 5 -103 84 -129 234 -76 406 -85 340 -19 -14 14
-25 41 -25 60 0 77 -345 154 -399 88z"/>
<path d="M4545 1169 c-25 -24 -45 -57 -45 -75 0 -45 -29 -57 -86 -35 -71 26
-207 -87 -185 -155 32 -102 160 -119 233 -32 15 19 77 66 136 104 99 63 105
72 73 95 -19 15 -30 35 -23 46 42 67 -43 110 -103 52z"/>
<path d="M2553 1075 c9 -42 8 -43 -20 -9 -38 48 -57 15 -33 -58 10 -32 24 -83
30 -114 15 -74 98 -115 144 -69 27 28 28 41 6 95 -19 47 -20 68 -3 85 31 31
29 46 -8 84 -51 50 -127 41 -116 -14z"/>
<path d="M4929 1099 c-39 -63 159 -299 251 -299 82 0 67 58 -49 190 -108 123
-172 157 -202 109z m182 -128 c36 -35 37 -71 3 -71 -33 0 -74 41 -74 74 0 34
36 33 71 -3z"/>
<path d="M4794 921 c9 -34 1 -41 -44 -41 -41 0 -51 -8 -42 -31 6 -17 3 -26 -7
-19 -11 6 -34 -16 -51 -50 -84 -162 105 -245 205 -90 52 80 55 102 20 124 -14
9 -25 43 -25 76 0 40 -11 62 -33 66 -25 5 -31 -4 -23 -35z"/>
<path d="M3943 788 c-114 -80 17 -234 167 -196 118 29 23 224 -111 228 -5 0
-31 -14 -56 -32z"/>
<path d="M2380 764 c-89 -72 -9 -157 132 -141 68 8 81 51 33 110 -51 63 -112
74 -165 31z"/>
<path d="M4258 708 c-31 -38 36 -108 103 -108 49 0 100 54 86 91 -12 31 -67
41 -67 11 0 -9 -20 -22 -45 -29 -41 -10 -42 -9 -10 15 19 15 35 32 35 39 0 26
-76 12 -102 -19z"/>
</g>
</svg>
