<?xml version="1.0" standalone="no"?>
<!DOCTYPE svg PUBLIC "-//W3C//DTD SVG 20010904//EN"
 "http://www.w3.org/TR/2001/REC-SVG-20010904/DTD/svg10.dtd">
<svg version="1.0" xmlns="http://www.w3.org/2000/svg"
 width="1024.000000pt" height="1024.000000pt" viewBox="0 0 1024.000000 1024.000000"
 preserveAspectRatio="xMidYMid meet">

<g transform="translate(0.000000,1024.000000) scale(0.100000,-0.100000)"
fill="#000000" stroke="none">
<path d="M4405 8710 c-161 -26 -377 -97 -455 -150 -14 -9 -40 -23 -57 -31 -18
-8 -33 -17 -33 -21 0 -5 -6 -8 -13 -8 -8 0 -24 -11 -37 -25 -20 -21 -22 -30
-14 -53 11 -32 109 -101 239 -168 255 -132 494 -175 910 -164 88 3 311 4 495
4 268 0 351 -3 417 -16 91 -18 285 -77 293 -89 3 -5 23 -15 44 -24 22 -9 46
-23 54 -31 8 -8 21 -13 29 -10 8 3 12 2 8 -3 -3 -5 9 -21 27 -35 39 -30 39
-30 -49 -12 -135 29 -367 46 -604 46 -382 -1 -657 -39 -929 -130 -159 -53
-279 -114 -376 -191 -86 -68 -228 -209 -219 -217 2 -3 -3 -11 -13 -18 -16 -12
-15 -15 13 -38 78 -65 250 -143 404 -183 87 -23 119 -26 351 -30 202 -4 274
-2 346 11 185 32 350 100 585 243 160 97 289 166 382 203 117 46 260 80 336
80 141 0 147 18 33 111 -48 39 -105 86 -127 104 -22 18 -67 55 -100 81 -33 27
-71 59 -85 71 -14 13 -28 23 -32 23 -3 0 -14 8 -24 18 -34 34 -77 61 -87 55
-6 -3 -7 -1 -3 5 4 7 1 12 -8 12 -8 0 -16 4 -18 8 -12 28 -273 184 -483 287
-264 129 -532 222 -766 265 -129 24 -345 34 -434 20z m1067 -372 c75 -22 68
-28 -34 -28 -98 0 -200 -17 -378 -64 -171 -44 -258 -57 -406 -57 -77 0 -160 3
-182 7 -45 7 -57 24 -18 24 46 0 257 40 348 66 246 70 270 74 453 70 102 -3
189 -10 217 -18z m303 -653 c124 -12 136 -25 38 -44 -103 -21 -264 -76 -364
-126 -235 -119 -403 -166 -579 -164 -72 1 -81 3 -57 12 15 6 27 14 27 19 0 4
7 8 15 8 24 0 141 62 235 125 166 110 299 161 459 174 85 8 109 7 226 -4z"/>
<path d="M6386 8249 c-21 -30 -20 -54 3 -104 27 -61 105 -123 241 -194 276
-143 524 -302 731 -467 99 -78 96 -83 -48 -104 -70 -10 -76 -9 -195 29 -184
58 -228 65 -388 65 -152 0 -214 -10 -330 -56 -95 -38 -212 -116 -310 -208 -52
-49 -179 -226 -234 -328 -31 -56 -56 -107 -56 -112 0 -4 -3 -10 -7 -12 -5 -1
-30 -36 -57 -75 -55 -84 -133 -158 -223 -215 -35 -22 -63 -43 -63 -47 0 -14
209 -104 335 -145 165 -53 226 -61 435 -60 177 0 204 3 292 27 218 58 377 161
507 326 36 47 91 140 91 156 1 3 9 25 20 49 29 68 100 328 100 367 0 16 -64
10 -128 -12 -88 -30 -154 -78 -295 -215 -168 -165 -283 -244 -442 -302 -88
-33 -165 -49 -165 -35 0 5 27 28 60 51 33 24 145 125 249 226 315 306 471 389
726 390 147 0 246 -25 350 -87 126 -75 425 -363 548 -527 84 -112 186 -292
254 -450 23 -54 24 -54 17 -15 -37 236 -338 749 -638 1085 -17 19 -70 80 -117
135 -107 123 -331 342 -464 454 -226 189 -601 404 -746 427 -30 5 -39 2 -53
-17z"/>
<path d="M3512 8075 c-73 -20 -184 -68 -256 -112 -199 -120 -470 -335 -611
-484 -558 -590 -870 -1227 -987 -2019 -31 -208 -31 -646 0 -865 50 -357 152
-727 273 -990 141 -308 227 -456 404 -698 439 -599 1025 -1022 1682 -1212 240
-70 346 -86 590 -92 229 -6 341 6 488 49 213 63 264 145 130 210 -41 21 -136
43 -290 68 -640 105 -849 151 -1139 255 -506 179 -905 415 -1196 705 -218 216
-377 442 -512 728 -90 191 -141 343 -179 537 -30 153 -31 370 -1 510 75 358
267 751 564 1156 107 146 114 168 72 218 -20 24 -34 31 -63 31 -30 0 -44 -8
-78 -42 -99 -104 -218 -285 -368 -558 -91 -167 -93 -163 -34 66 204 795 497
1345 974 1833 216 221 422 381 712 555 147 87 157 119 50 151 -62 18 -155 18
-225 0z"/>
<path d="M4275 7864 c-27 -15 -90 -55 -140 -89 -64 -44 -130 -77 -225 -114
-243 -94 -311 -124 -399 -176 -246 -145 -417 -348 -523 -622 -13 -34 -22 -43
-53 -52 -66 -18 -103 -51 -140 -125 -46 -91 -47 -141 -2 -228 54 -104 163
-159 270 -136 118 25 197 123 197 244 0 36 -6 80 -14 98 -21 50 -85 117 -133
138 -54 24 -55 42 -9 131 161 308 364 477 730 608 60 21 111 37 114 35 5 -6
-17 -46 -45 -80 -75 -90 -158 -347 -163 -503 0 -2 -9 -3 -21 -3 -12 0 -49 -13
-84 -30 -75 -36 -125 -101 -151 -197 -16 -58 -16 -67 0 -130 34 -137 134 -224
268 -231 92 -6 147 16 220 86 69 66 92 119 92 212 0 119 -64 214 -182 268
l-54 25 6 78 c10 109 37 197 96 314 64 126 190 273 311 362 140 103 145 108
130 127 -19 22 -38 20 -96 -10z m-607 -1027 c4 -21 -24 -57 -44 -57 -22 0 -36
37 -24 61 14 26 63 23 68 -4z m-750 -150 c4 -33 -22 -47 -46 -24 -14 15 -14
18 3 37 23 26 39 21 43 -13z"/>
<path d="M7398 7020 c-14 -8 -16 -26 -15 -103 1 -99 8 -74 -99 -347 -33 -85
-38 -107 -42 -210 -5 -134 7 -188 63 -280 42 -69 155 -173 240 -219 33 -19 83
-53 111 -77 28 -24 55 -40 59 -36 5 4 5 2 1 -5 -3 -6 -1 -15 7 -20 7 -4 20
-21 30 -36 10 -15 22 -25 27 -22 6 4 10 1 10 -6 0 -7 25 39 56 101 30 63 64
126 75 141 26 37 86 159 117 239 21 56 25 82 25 180 0 96 -3 125 -22 173 -62
158 -187 264 -382 321 -117 35 -149 71 -149 167 l0 49 -47 0 c-27 0 -56 -5
-65 -10z m235 -469 c50 -77 129 -253 142 -316 18 -87 30 -195 24 -211 -7 -19
-7 -19 -15 1 -4 11 -22 44 -41 73 -18 29 -33 56 -33 60 0 5 -27 47 -59 95 -64
93 -108 210 -136 362 -8 44 -17 90 -20 103 -8 34 66 -56 138 -167z"/>
<path d="M4762 6840 c-105 -25 -202 -157 -202 -275 0 -146 137 -285 281 -285
106 0 210 65 261 163 13 27 23 68 26 114 4 64 1 79 -22 127 -63 128 -200 190
-344 156z m13 -130 c0 -38 -24 -52 -50 -30 -19 16 -19 35 1 55 27 26 49 15 49
-25z"/>
<path d="M2862 5223 l3 -708 114 -3 c87 -3 116 -1 122 10 5 7 9 138 9 291 l0
277 235 0 c181 0 235 -3 236 -12 1 -7 0 -128 -1 -269 -1 -177 2 -264 10 -278
10 -20 17 -21 123 -19 l112 3 3 701 2 701 -112 7 c-101 7 -114 6 -125 -10 -10
-14 -13 -83 -13 -286 l0 -268 -22 -5 c-13 -3 -117 -4 -233 -3 l-210 3 -3 281
-2 282 -26 5 c-14 2 -70 5 -125 6 l-99 2 2 -708z"/>
<path d="M4102 5917 c-15 -17 -17 -1360 -2 -1387 10 -18 21 -20 113 -20 56 0
108 4 114 8 10 6 13 112 15 452 l3 444 48 -59 c58 -72 163 -207 234 -301 48
-63 278 -358 381 -489 l44 -56 141 3 142 3 3 288 2 287 370 0 370 0 0 -279 c0
-211 3 -281 13 -289 13 -11 194 -16 220 -6 16 6 17 60 17 704 0 627 -2 698
-16 704 -32 12 -211 7 -223 -7 -7 -9 -12 -106 -13 -288 l-3 -274 -365 0 -365
0 -3 282 -2 282 -33 6 c-17 3 -72 5 -122 3 l-90 -3 -3 -495 c-1 -272 -6 -498
-11 -503 -5 -5 -18 4 -30 20 -35 46 -414 529 -516 657 -27 35 -79 100 -115
146 -36 45 -78 99 -95 120 -16 21 -40 43 -53 49 -32 15 -157 14 -170 -2z"/>
<path d="M6620 5920 c-13 -8 -15 -99 -18 -696 -2 -478 1 -691 8 -698 7 -7 138
-12 389 -14 341 -3 380 -1 395 14 14 13 16 33 14 107 -3 88 -4 91 -28 98 -14
4 -136 7 -272 8 -228 1 -248 2 -250 19 -2 9 -3 276 -3 592 l0 575 -110 3 c-60
1 -117 -2 -125 -8z"/>
<path d="M8526 5611 c-12 -151 -90 -353 -192 -502 -71 -104 -143 -181 -329
-352 -315 -290 -449 -480 -549 -777 -31 -94 -51 -187 -138 -635 l-23 -120 -56
-22 c-153 -61 -405 -103 -614 -103 -68 0 -126 -4 -129 -9 -9 -14 130 -67 229
-87 171 -34 458 -17 678 41 488 128 836 368 1048 725 91 154 153 345 196 605
25 146 27 183 27 435 -1 232 -4 297 -22 415 -36 230 -79 414 -106 450 -11 16
-14 7 -20 -64z m-261 -1298 c-64 -267 -208 -478 -395 -580 -68 -38 -151 -72
-174 -73 -4 0 32 42 81 93 183 191 373 451 456 624 47 97 52 105 55 76 2 -18
-8 -81 -23 -140z"/>
<path d="M8015 5613 c-57 -12 -96 -39 -131 -89 -35 -50 -36 -56 -32 -121 3
-60 8 -75 36 -110 42 -54 85 -73 165 -73 73 0 109 18 160 83 25 30 32 49 35
97 4 51 1 66 -22 104 -33 57 -79 92 -136 105 -25 6 -47 10 -50 10 -3 -1 -14
-3 -25 -6z"/>
<path d="M2412 5318 c-6 -7 -19 -40 -30 -72 -20 -59 -20 -59 -76 -77 -31 -9
-68 -25 -83 -34 -27 -18 -27 -18 -6 -34 19 -16 69 -34 123 -45 21 -4 28 -16
43 -68 31 -106 54 -115 85 -35 12 28 22 61 24 71 2 13 20 25 53 36 97 34 115
42 115 54 0 15 -34 32 -109 56 -49 16 -56 21 -66 56 -15 50 -43 104 -54 104
-5 0 -13 -6 -19 -12z"/>
<path d="M7573 5318 c-6 -7 -19 -39 -29 -71 -18 -57 -18 -58 -73 -74 -55 -15
-111 -47 -111 -62 0 -10 61 -37 120 -54 43 -12 46 -15 65 -72 23 -68 32 -85
45 -85 15 0 43 49 55 98 12 44 13 45 80 68 38 13 75 30 83 38 13 13 11 17 -19
35 -18 11 -55 26 -81 33 -40 10 -50 17 -54 37 -10 53 -40 116 -55 119 -9 2
-21 -3 -26 -10z"/>
<path d="M2105 4623 c-56 -14 -85 -79 -85 -193 0 -102 18 -148 77 -201 54 -49
102 -64 148 -49 113 37 155 162 95 280 -53 103 -163 179 -235 163z"/>
<path d="M2446 4289 c-35 -28 -65 -88 -72 -146 -6 -53 -23 -106 -33 -100 -150
83 -247 101 -288 52 -44 -50 -26 -103 62 -183 60 -56 133 -88 219 -98 45 -5
63 -2 108 19 98 44 148 141 148 283 0 96 -14 140 -55 172 -35 27 -55 28 -89 1z"/>
<path d="M3268 4166 c-1 -36 -1 -95 0 -131 3 -56 6 -65 23 -65 16 0 19 7 19
50 l0 50 74 0 75 0 3 -47 c3 -41 6 -48 26 -51 l23 -3 -3 128 c-3 120 -4 128
-23 128 -17 0 -20 -8 -23 -52 l-3 -53 -74 0 -74 0 -3 52 c-2 40 -7 54 -20 56
-13 3 -17 -8 -20 -62z"/>
<path d="M3625 4219 c-7 -10 -14 -221 -8 -236 8 -19 166 -18 183 2 21 25 1 35
-76 35 -72 0 -74 1 -74 25 0 25 13 30 95 37 19 2 31 9 33 21 3 15 -5 17 -62
17 l-66 0 0 34 0 34 75 7 c81 8 101 24 33 26 -24 1 -62 3 -86 3 -24 1 -45 -1
-47 -5z"/>
<path d="M4313 4223 c-10 -3 -13 -39 -13 -129 l0 -124 100 0 c82 0 100 3 100
15 0 11 -12 15 -42 16 -24 1 -56 4 -73 8 l-30 6 -5 104 c-5 100 -10 115 -37
104z"/>
<path d="M4614 4219 c-9 -15 -2 -19 47 -27 l44 -8 3 -107 c2 -80 6 -107 15
-104 8 2 14 37 17 98 3 52 9 99 13 105 4 7 23 15 43 18 21 4 34 12 31 19 -5
16 -203 21 -213 6z"/>
<path d="M4970 4099 c0 -130 0 -130 23 -127 19 3 22 10 25 51 l3 47 70 0 69 0
0 -37 c0 -46 13 -68 34 -60 13 5 16 26 16 127 0 113 -1 120 -20 120 -20 0 -27
-16 -32 -75 -3 -28 -6 -30 -49 -33 -25 -2 -58 2 -73 8 -26 10 -28 14 -23 49 5
39 -6 61 -30 61 -10 0 -13 -30 -13 -131z"/>
<path d="M5350 4216 c0 -7 20 -43 44 -79 35 -50 45 -75 48 -113 2 -35 7 -50
19 -52 13 -2 18 9 23 49 7 55 20 84 61 145 51 75 17 89 -41 17 -20 -27 -40
-52 -44 -56 -4 -4 -23 17 -43 48 -35 52 -67 72 -67 41z"/>
<path d="M5942 4222 c-9 -7 -12 -39 -10 -128 l3 -119 98 0 c116 0 129 16 25
30 l-73 10 -5 104 c-5 102 -11 119 -38 103z"/>
<path d="M6266 4215 c-13 -13 -16 -38 -16 -131 0 -114 0 -115 23 -112 21 3 22
7 25 122 3 124 -4 149 -32 121z"/>
<path d="M6418 4224 c-5 -4 -8 -63 -8 -131 0 -123 0 -124 23 -121 19 3 22 10
25 50 l3 47 62 3 c49 2 62 6 65 21 3 15 -5 17 -62 17 l-66 0 0 40 c0 22 3 40
8 41 4 0 34 3 66 5 62 5 74 9 62 22 -10 10 -169 16 -178 6z"/>
<path d="M6724 4217 c-2 -7 -3 -65 -2 -128 l3 -114 90 0 c86 0 90 1 93 23 3
21 0 22 -73 22 -59 0 -77 3 -82 16 -9 24 9 35 73 41 54 5 73 15 74 36 0 4 -31
7 -69 7 -75 0 -86 7 -77 46 6 22 11 24 65 24 68 0 91 6 91 26 0 20 -178 20
-186 1z"/>
<path d="M3966 4104 c-31 -64 -56 -120 -56 -125 0 -20 41 -8 52 16 24 54 137
57 167 4 15 -26 51 -41 51 -20 0 4 -25 60 -55 125 -48 100 -59 116 -79 116
-21 0 -32 -16 -80 -116z m100 21 c7 -19 14 -38 14 -44 0 -12 -38 -21 -59 -13
-17 7 -17 9 1 50 10 23 21 42 24 42 3 0 12 -16 20 -35z"/>
<path d="M2616 3925 c-33 -31 -49 -69 -67 -159 -7 -37 -18 -70 -25 -73 -7 -2
-34 7 -60 20 -57 29 -147 57 -182 57 -31 0 -92 -60 -92 -92 0 -27 45 -99 80
-126 67 -52 190 -92 285 -92 140 1 225 112 225 296 -1 156 -84 243 -164 169z"/>
<path d="M5004 3736 c-29 -29 -34 -41 -34 -80 0 -27 7 -58 16 -72 63 -96 223
-54 224 59 0 79 -46 127 -123 127 -42 0 -54 -5 -83 -34z"/>
<path d="M3760 3656 c0 -2 9 -57 21 -123 12 -73 24 -199 29 -333 5 -118 12
-226 15 -240 38 -141 87 -254 137 -311 73 -84 103 -112 155 -148 83 -55 130
-77 228 -106 99 -28 249 -34 362 -13 58 11 66 10 91 -9 15 -11 47 -57 72 -103
52 -98 141 -193 217 -233 286 -152 820 -37 1253 270 132 94 260 200 260 214 0
5 -100 -43 -222 -105 -250 -128 -389 -188 -558 -239 -235 -71 -443 -84 -595
-37 -58 18 -79 31 -121 74 -84 86 -101 172 -68 352 30 163 20 355 -22 454 -41
95 -55 119 -98 175 -143 184 -359 288 -671 320 -158 17 -291 53 -406 111 -64
33 -79 38 -79 30z m495 -519 c337 -209 429 -297 565 -542 l33 -60 -59 53 c-32
29 -147 120 -254 201 -107 82 -216 170 -242 195 -51 50 -160 190 -171 220 -7
18 -7 18 20 0 16 -10 64 -40 108 -67z"/>
<path d="M3290 3603 c-31 -11 -71 -58 -81 -95 -15 -59 -2 -103 42 -143 32 -29
47 -35 83 -35 72 0 136 67 136 142 0 86 -101 160 -180 131z"/>
<path d="M2827 3578 c-36 -32 -64 -101 -72 -181 -4 -37 -11 -69 -15 -72 -4 -3
-50 16 -101 42 -155 77 -239 63 -239 -40 0 -37 6 -47 60 -100 72 -69 196 -133
292 -149 61 -11 68 -10 114 13 58 28 94 86 115 183 27 125 10 243 -43 295 -38
37 -74 40 -111 9z"/>
<path d="M5420 3588 c1 -34 73 -184 133 -275 115 -176 238 -252 447 -278 115
-15 179 -42 239 -103 53 -53 112 -145 100 -156 -7 -7 -370 68 -454 94 -130 40
-225 113 -298 226 -81 127 -79 124 -72 89 3 -16 23 -66 45 -111 31 -64 55 -96
116 -154 97 -92 155 -119 365 -169 168 -40 289 -82 309 -106 13 -15 -39 -35
-160 -60 -207 -43 -439 -37 -765 20 -110 19 -208 35 -217 35 -47 0 18 -152 85
-201 71 -52 132 -64 317 -64 294 0 545 53 818 171 174 76 341 177 391 238 18
22 14 21 -81 -19 -121 -52 -153 -57 -213 -37 -27 10 -55 21 -62 25 -6 4 -28
58 -48 120 -47 143 -130 313 -195 399 -121 160 -291 247 -485 248 -102 0 -205
22 -260 55 -50 29 -55 30 -55 13z"/>
<path d="M6634 3501 c-30 -18 -64 -74 -64 -105 0 -9 9 -35 20 -56 35 -69 114
-90 176 -48 39 27 54 56 54 106 0 54 -31 99 -77 111 -53 15 -74 14 -109 -8z"/>
<path d="M3388 3318 c-77 -67 -76 -172 2 -228 112 -80 262 59 190 177 -26 44
-58 63 -116 69 -41 4 -53 2 -76 -18z"/>
<path d="M7979 3079 c-116 -62 -336 -225 -474 -351 -55 -51 -194 -189 -310
-308 -115 -118 -260 -264 -322 -324 -62 -59 -113 -116 -113 -126 0 -67 41 -65
183 8 401 208 781 562 1074 1002 93 139 99 150 76 150 -10 0 -61 -23 -114 -51z"/>
<path d="M2897 2981 c-15 -10 -30 -20 -33 -24 -21 -20 125 -174 212 -223 82
-46 88 -45 80 13 -6 45 -13 54 -114 150 -59 56 -109 102 -112 102 -3 0 -17 -8
-33 -18z"/>
<path d="M7250 2943 c-66 -7 -77 -13 -112 -65 -142 -213 -438 -504 -683 -669
-280 -188 -788 -441 -1185 -589 -97 -36 -150 -62 -150 -72 0 -27 135 -41 263
-28 375 39 813 254 1222 599 113 95 373 353 451 447 115 139 231 293 278 372
7 12 -6 13 -84 5z"/>
<path d="M3372 2842 c-72 -67 -54 -122 87 -262 271 -270 661 -439 1054 -457
120 -6 127 -5 128 13 1 10 3 33 4 49 3 43 -11 55 -66 55 -69 0 -270 43 -371
80 -90 32 -293 143 -337 183 -15 13 -44 36 -66 51 -22 15 -103 93 -181 172
-135 138 -143 144 -181 144 -31 0 -48 -7 -71 -28z"/>
</g>
</svg>
